HIERARCHY
ROOT Hips
{
  OFFSET 267.745 86.9975 -272.335
  CHANNELS 6 Xposition Yposition Zposition Zrotation Xrotation Yrotation
  JOINT LeftUpLeg
  {
    OFFSET 8.64259 1.95398 -2.38835
    CHANNELS 3 Zrotation Xrotation Yrotation
    JOINT LeftLeg
    {
      OFFSET 43.7702 0 0
      CHANNELS 3 Zrotation Xrotation Yrotation
      JOINT LeftFoot
      {
        OFFSET 40.6238 0 0
        CHANNELS 3 Zrotation Xrotation Yrotation
        JOINT LeftToeBase
        {
          OFFSET 12.7242 0 0
          CHANNELS 3 Zrotation Xrotation Yrotation
          End Site
          {
            OFFSET 0 0 0
          }
        }
      }
    }
  }
  JOINT RightUpLeg
  {
    OFFSET -8.2249 1.95398 -2.59336
    CHANNELS 3 Zrotation Xrotation Yrotation
    JOINT RightLeg
    {
      OFFSET 43.5653 0 0
      CHANNELS 3 Zrotation Xrotation Yrotation
      JOINT RightFoot
      {
        OFFSET 40.6238 0 0
        CHANNELS 3 Zrotation Xrotation Yrotation
        JOINT RightToeBase
        {
          OFFSET 12.7242 0 0
          CHANNELS 3 Zrotation Xrotation Yrotation
          End Site
          {
            OFFSET 0 0 0
          }
        }
      }
    }
  }
  JOINT Spine
  {
    OFFSET 0.165834 0.87714 6.61349
    CHANNELS 3 Zrotation Xrotation Yrotation
    JOINT Spine1
    {
      OFFSET 7.38963 1.71661e-005 0
      CHANNELS 3 Zrotation Xrotation Yrotation
      JOINT Spine2
      {
        OFFSET 11.9445 1.14441e-005 0
        CHANNELS 3 Zrotation Xrotation Yrotation
        JOINT Spine3
        {
          OFFSET 14.7254 4.19617e-005 0
          CHANNELS 3 Zrotation Xrotation Yrotation
          JOINT Spine4
          {
            OFFSET 10.9679 0 0
            CHANNELS 3 Zrotation Xrotation Yrotation
            JOINT RightShoulder
            {
              OFFSET 2.46616 -1.6653 3.69651
              CHANNELS 3 Zrotation Xrotation Yrotation
              JOINT RightArm
              {
                OFFSET 13.0012 0 0
                CHANNELS 3 Zrotation Xrotation Yrotation
                JOINT RightForeArm
                {
                  OFFSET 28.7848 1.52588e-005 0
                  CHANNELS 3 Zrotation Xrotation Yrotation
                  JOINT RightHand
                  {
                    OFFSET 26.5688 1.52588e-005 0
                    CHANNELS 3 Zrotation Xrotation Yrotation
                    End Site
                    {
                      OFFSET 0 0 0
                    }
                  }
                }
              }
            }
            JOINT LeftShoulder
            {
              OFFSET 2.38034 -1.29275 -3.7523
              CHANNELS 3 Zrotation Xrotation Yrotation
              JOINT LeftArm
              {
                OFFSET 16.3182 6.10352e-005 0
                CHANNELS 3 Zrotation Xrotation Yrotation
                JOINT LeftForeArm
                {
                  OFFSET 27.0901 0 0
                  CHANNELS 3 Zrotation Xrotation Yrotation
                  JOINT LeftHand
                  {
                    OFFSET 24.5451 1.52588e-005 0
                    CHANNELS 3 Zrotation Xrotation Yrotation
                    End Site
                    {
                      OFFSET 0 0 0
                    }
                  }
                }
              }
            }
            JOINT Neck
            {
              OFFSET 5.0226 -0.0266342 0
              CHANNELS 3 Zrotation Xrotation Yrotation
              JOINT Head
              {
                OFFSET 6.69364 2.86102e-005 0
                CHANNELS 3 Zrotation Xrotation Yrotation
                End Site
                {
                  OFFSET 0 0 0
                }
              }
            }
          }
        }
      }
    }
  }
}
MOTION
Frames:	9
Frame Time:	0.0416667
-11.9431 75.4431 -70.4391 67.0372 -59.4116 64.1099 -147.126 67.1847 76.0311 -56.7745 18.74 -7.162 52.9643 -1.72424 14.4095 34.1949 -0.276323 -4.74269 175.364 51.4463 72.7512 -91.5164 -16.4047 -2.31913 74.7781 -7.6887 8.68184 70.7745 -8.63029 6.37095 0.309125 14.9368 -89.5816 -3.00376 0.757581 0.876276 -14.6748 0.79539 0.84207 -37.2083 0.4592 1.06343 -17.1957 0.459206 1.06344 90.7826 -27.0478 -106.518 15.2019 21.6985 -79.9103 -0.427788 0.710114 -5.16529 1.29972 -0.0641961 -7.27879 -97.2686 -35.1667 61.9712 -22.6112 -7.80626 -89.8873 5.15465 -14.9659 0.0089713 2.86765 -0.424274 -11.6535 -17.0053 -1.54279 0.391112 40.9879 2.50502 10.0237 
0.365425 76.4863 -58.2398 62.1183 -58.317 63.7564 -147.993 67.1605 76.8924 -74.8037 15.8265 -3.31914 64.0232 7.27577 13.365 45.4424 -1.66518 2.35917 173.569 41.3983 71.4991 -86.0128 -21.5725 -2.02158 59.1362 3.17305 11.1533 69.4372 -6.14439 12.8693 0.663142 14.4849 -89.602 -2.10379 1.45857 0.883096 -13.7741 1.49603 0.818043 -36.3113 1.12575 1.28063 -16.2987 1.12575 1.28065 87.877 -36.9891 -108.345 11.4639 16.2683 -71.041 2.5696 -1.15362 -8.37039 -12.7082 -0.307037 -2.03729 -97.5672 -36.4463 62.0312 -26.3613 -1.65255 -84.7492 3.84794 -13.2861 0.338246 10.7267 -0.749509 -10.0201 -0.628771 -0.560004 -0.706174 26.363 2.26918 10.0264 
11.1414 78.6215 -46.3999 56.6474 -54.5497 60.7805 -154.221 60.7243 80.4646 -76.5416 24.9342 -3.30091 63.0721 10.7335 26.1668 62.7129 -1.99591 10.2965 174.082 40.1779 73.6952 -87.6437 -22.7552 -2.34454 43.0684 12.9371 11.6975 16.6937 2.61055 1.39551 0.66971 13.6143 -89.3979 -0.365479 1.55625 1.24236 -12.036 1.60942 1.17266 -34.5708 1.11097 1.65258 -14.5581 1.11097 1.65259 90.3074 -40.9751 -102.874 15.1319 9.33919 -60.7832 0.772795 -4.36872 -20.5484 -12.4852 -0.370114 -1.7351 -94.6293 -38.7836 67.9167 -33.6593 3.27948 -77.0213 3.96431 -2.19813 -5.99597 10.684 -0.771574 -10.229 8.09781 0.575403 5.72243 18.867 -0.362499 1.20951 
21.7859 82.7987 -34.1525 48.6288 -49.8051 55.5398 -161.182 50.102 85.1969 -66.2682 26.6525 -4.15213 65.1069 13.2412 26.5879 67.556 -1.11448 14.2899 163.679 50.6086 86.5832 -92.0262 -16.4903 -1.06136 51.9991 7.03054 7.56681 17.3959 3.62809 -4.39514 0.525309 12.6202 -89.5232 1.62518 1.23124 0.962755 -10.0455 1.27242 0.907635 -32.5803 0.884999 1.28826 -12.5676 0.884994 1.28826 94.3739 -45.1757 -95.073 15.6432 4.61148 -48.777 -5.70142 -5.68902 -48.6353 -14.9967 -0.357907 -2.50253 -88.2743 -36.897 78.2989 -42.4756 8.00721 -68.0581 9.76781 11.107 -25.1348 4.50291 -0.403989 -9.90039 13.5179 1.20303 0.133917 16.1321 2.29923 6.4009 
33.1571 87.0414 -21.8964 45.5925 -47.2977 55.2798 -168.089 36.4273 90.1427 -52.3309 25.0639 -3.31802 62.9544 7.37759 16.8553 70.1002 -1.44797 12.8429 142.151 56.4139 106.559 -83.8057 -15.8984 3.61454 61.13 5.95632 21.161 32.8479 -1.31037 5.82656 0.34442 11.7781 -90.2527 3.31865 0.587669 -0.491013 -8.35227 0.565489 -0.516405 -30.8882 0.708063 -0.291689 -10.8755 0.708063 -0.291695 99.505 -43.5466 -86.674 22.867 0.334232 -40.2882 -20.7718 -3.25069 -75.3516 -12.8602 -0.583051 0.0875668 -83.9182 -36.4196 85.909 -36.1567 12.5297 -58.4146 7.55436 7.45187 -43.2748 -1.14691 -0.167391 -11.5475 9.52454 3.02938 -6.69665 16.1068 7.05521 14.5967 
45.4174 90.6995 -7.77121 44.2906 -48.5113 53.0601 -174.745 17.9102 90.279 -32.9133 18.4908 0.2737 44.183 -9.08402 -7.83183 67.1781 -3.96674 2.84442 143.923 58.0141 109.129 -59.3648 -17.783 11.238 62.3116 7.37444 25.749 58.9434 -4.64649 16.3782 0.160386 10.9209 -90.4841 5.03088 0.12114 -0.955277 -6.64043 0.0789845 -0.959693 -29.1731 0.402615 -0.874725 -9.16047 0.402632 -0.874706 100.768 -39.6758 -84.6576 25.2836 -10.5372 -30.8798 -22.4185 3.51655 -86.7202 -19.5126 -0.859085 -0.0997045 -83.9922 -41.5471 86.4998 -23.555 14.8556 -42.7492 0.362254 -0.666052 -57.421 -0.162092 -0.281134 -14.1641 2.13358 4.97369 -11.4128 14.4302 10.4303 22.9828 
57.3972 91.468 6.89718 52.9928 -50.9247 58.477 175.702 8.10565 88.0448 -45.7818 19.631 5.21482 34.7448 -12.98 -7.6767 47.7671 -1.63093 7.7954 160.985 53.7759 97.8391 -47.9568 -12.0686 10.3886 58.839 7.26688 17.6755 61.7751 -6.58883 7.42834 0.162312 10.8344 -90.6358 5.2065 0.0614771 -1.25176 -6.465 0.00634724 -1.25326 -28.9963 0.434837 -1.17542 -8.98367 0.434849 -1.17542 99.5408 -42.1406 -86.6969 22.6684 -17.4454 -23.653 -14.7606 8.26191 -95.7378 -19.142 -0.620149 -1.44513 -83.2988 -47.9716 88.3724 -15.3177 15.7777 -35.2156 -0.769729 -3.76324 -67.3862 3.75706 -0.578942 -13.5063 10.0956 3.47858 -14.428 2.03233 8.16779 26.9927 
68.4272 89.2936 21.0806 62.6423 -50.178 67.0988 176.095 20.6378 88.8692 -86.5039 14.2991 3.98758 43.7199 -7.32318 5.80853 48.1774 -2.05188 2.2046 165.405 43.7786 96.2536 -56.5983 -10.4045 7.1463 63.1512 2.2428 7.94078 52.8701 -5.53537 3.31982 0.660297 10.7773 -90.9839 5.32181 0.910974 -1.94826 -6.35037 0.824376 -1.98645 -28.8793 1.45432 -1.58454 -8.86666 1.45433 -1.58454 99.0266 -40.011 -87.7448 24.9011 -20.8501 -17.0572 -9.15977 10.0217 -104.682 -17.8469 -0.505364 -1.91716 -82.4384 -50.5704 89.9348 -5.39761 20.1993 -32.5122 -9.07214 -8.21199 -80.1257 11.6256 -0.853449 -10.7104 18.9098 1.8122 -4.76046 -3.11754 3.33158 15.9899 
79.3695 87.6369 36.4293 65.9244 -45.9572 67.9985 -179.305 44.493 85.3797 -103.245 7.05486 2.9557 51.0728 0.485293 15.2059 49.1202 -2.0066 4.24194 169.167 28.1429 91.6906 -53.6689 -11.8531 6.29071 69.7298 -4.73212 -1.20839 67.6263 -7.89795 6.74172 1.09636 9.90189 -90.7779 7.08075 1.85527 -1.61493 -4.58998 1.78237 -1.69502 -27.1322 2.25478 -0.982591 -7.11952 2.25478 -0.982596 99.0002 -33.5436 -88.3346 33.7029 -27.3394 -1.90135 -5.18912 11.6753 -113.959 -18.4958 -0.84251 0.0887426 -82.0295 -52.0765 90.6617 7.22577 28.2989 -28.421 -19.6541 -10.4079 -91.4704 12.184 -0.509381 -7.64851 13.423 -1.3864 3.84198 -1.63769 -2.21312 5.47807 
